<mxfile host="app.diagrams.net" agent="Mozilla/5.0 (Windows NT 10.0; Win64; x64) AppleWebKit/537.36 (KHTML, like Gecko) Chrome/138.0.0.0 Safari/537.36" version="27.2.0">
  <diagram name="Página-1" id="3Wf6BYqrQMNNj9eiMfsW">
    <mxGraphModel dx="1426" dy="1920" grid="1" gridSize="10" guides="1" tooltips="1" connect="1" arrows="1" fold="1" page="1" pageScale="1" pageWidth="827" pageHeight="1169" math="0" shadow="0">
      <root>
        <mxCell id="0" />
        <mxCell id="1" parent="0" />
        <mxCell id="hvLHzrmta7wuHLuf9szE-158" value="" style="rounded=1;whiteSpace=wrap;html=1;" parent="1" vertex="1">
          <mxGeometry x="633.5" y="-60" width="120" height="190" as="geometry" />
        </mxCell>
        <mxCell id="hvLHzrmta7wuHLuf9szE-1" value="Usuário / Cliente" style="rounded=1;whiteSpace=wrap;html=1;fillColor=#dae8fc;strokeColor=#6c8ebf;" parent="1" vertex="1">
          <mxGeometry x="10" y="590" width="160" height="50" as="geometry" />
        </mxCell>
        <mxCell id="hvLHzrmta7wuHLuf9szE-2" value="Autenticação por Token (JWT/OAuth2)" style="rounded=1;whiteSpace=wrap;html=1;fillColor=#ffe6cc;strokeColor=#d79b00;" parent="1" vertex="1">
          <mxGeometry x="240" y="595" width="160" height="40" as="geometry" />
        </mxCell>
        <mxCell id="hvLHzrmta7wuHLuf9szE-3" value="FastAPI (API Gateway)" style="rounded=1;whiteSpace=wrap;html=1;fillColor=#e1d5e7;strokeColor=#9673a6;" parent="1" vertex="1">
          <mxGeometry x="460" y="590" width="160" height="50" as="geometry" />
        </mxCell>
        <mxCell id="hvLHzrmta7wuHLuf9szE-4" value="Rotas / Endpoints" style="rounded=1;whiteSpace=wrap;html=1;fillColor=#fff2cc;strokeColor=#d6b656;" parent="1" vertex="1">
          <mxGeometry x="670" y="590" width="160" height="50" as="geometry" />
        </mxCell>
        <mxCell id="hvLHzrmta7wuHLuf9szE-5" value="Serviços / CRUD" style="rounded=1;whiteSpace=wrap;html=1;fillColor=#d5e8d4;strokeColor=#82b366;" parent="1" vertex="1">
          <mxGeometry x="930" y="590" width="160" height="50" as="geometry" />
        </mxCell>
        <mxCell id="hvLHzrmta7wuHLuf9szE-6" value="ORM / SQLAlchemy" style="rounded=1;whiteSpace=wrap;html=1;fillColor=#f8cecc;strokeColor=#b85450;" parent="1" vertex="1">
          <mxGeometry x="1180" y="590" width="160" height="50" as="geometry" />
        </mxCell>
        <mxCell id="hvLHzrmta7wuHLuf9szE-7" value="Banco de Dados (SQLite)" style="shape=database;whiteSpace=wrap;html=1;fillColor=#fff2cc;strokeColor=#d6b656;" parent="1" vertex="1">
          <mxGeometry x="1398" y="585" width="160" height="60" as="geometry" />
        </mxCell>
        <mxCell id="hvLHzrmta7wuHLuf9szE-8" value="Logs" style="rounded=1;whiteSpace=wrap;html=1;fillColor=#f5f5f5;strokeColor=#666666;dashed=1;" parent="1" vertex="1">
          <mxGeometry x="670" y="760" width="120" height="50" as="geometry" />
        </mxCell>
        <mxCell id="hvLHzrmta7wuHLuf9szE-9" value="APIs de Observabilidade, Métricas" style="rounded=1;whiteSpace=wrap;html=1;fillColor=#e1e1e1;strokeColor=#00897b;" parent="1" vertex="1">
          <mxGeometry x="670" y="660" width="220" height="80" as="geometry" />
        </mxCell>
        <mxCell id="hvLHzrmta7wuHLuf9szE-10" style="edgeStyle=orthogonalEdgeStyle;rounded=0;orthogonalLoop=1;jettySize=auto;html=1;endArrow=block;endFill=1;" parent="1" source="hvLHzrmta7wuHLuf9szE-1" target="hvLHzrmta7wuHLuf9szE-2" edge="1">
          <mxGeometry relative="1" as="geometry" />
        </mxCell>
        <mxCell id="hvLHzrmta7wuHLuf9szE-11" style="edgeStyle=orthogonalEdgeStyle;rounded=0;orthogonalLoop=1;jettySize=auto;html=1;endArrow=block;endFill=1;" parent="1" source="hvLHzrmta7wuHLuf9szE-2" target="hvLHzrmta7wuHLuf9szE-3" edge="1">
          <mxGeometry relative="1" as="geometry" />
        </mxCell>
        <mxCell id="hvLHzrmta7wuHLuf9szE-12" style="edgeStyle=orthogonalEdgeStyle;rounded=0;orthogonalLoop=1;jettySize=auto;html=1;endArrow=block;endFill=1;" parent="1" source="hvLHzrmta7wuHLuf9szE-3" target="hvLHzrmta7wuHLuf9szE-4" edge="1">
          <mxGeometry relative="1" as="geometry" />
        </mxCell>
        <mxCell id="hvLHzrmta7wuHLuf9szE-13" style="edgeStyle=orthogonalEdgeStyle;rounded=0;orthogonalLoop=1;jettySize=auto;html=1;endArrow=block;endFill=1;" parent="1" source="hvLHzrmta7wuHLuf9szE-4" target="hvLHzrmta7wuHLuf9szE-5" edge="1">
          <mxGeometry relative="1" as="geometry" />
        </mxCell>
        <mxCell id="hvLHzrmta7wuHLuf9szE-14" style="edgeStyle=orthogonalEdgeStyle;rounded=0;orthogonalLoop=1;jettySize=auto;html=1;endArrow=block;endFill=1;" parent="1" source="hvLHzrmta7wuHLuf9szE-5" target="hvLHzrmta7wuHLuf9szE-6" edge="1">
          <mxGeometry relative="1" as="geometry" />
        </mxCell>
        <mxCell id="hvLHzrmta7wuHLuf9szE-15" style="edgeStyle=orthogonalEdgeStyle;rounded=0;orthogonalLoop=1;jettySize=auto;html=1;endArrow=block;endFill=1;" parent="1" source="hvLHzrmta7wuHLuf9szE-6" target="hvLHzrmta7wuHLuf9szE-7" edge="1">
          <mxGeometry relative="1" as="geometry" />
        </mxCell>
        <mxCell id="hvLHzrmta7wuHLuf9szE-16" style="edgeStyle=orthogonalEdgeStyle;rounded=0;orthogonalLoop=1;jettySize=auto;html=1;endArrow=block;endFill=1;dashed=1;" parent="1" source="hvLHzrmta7wuHLuf9szE-3" target="hvLHzrmta7wuHLuf9szE-8" edge="1">
          <mxGeometry relative="1" as="geometry">
            <Array as="points">
              <mxPoint x="540" y="780" />
            </Array>
          </mxGeometry>
        </mxCell>
        <mxCell id="hvLHzrmta7wuHLuf9szE-17" style="edgeStyle=orthogonalEdgeStyle;rounded=0;orthogonalLoop=1;jettySize=auto;html=1;endArrow=block;endFill=1;dashed=1;" parent="1" source="hvLHzrmta7wuHLuf9szE-3" target="hvLHzrmta7wuHLuf9szE-9" edge="1">
          <mxGeometry relative="1" as="geometry">
            <Array as="points">
              <mxPoint x="550" y="700" />
            </Array>
          </mxGeometry>
        </mxCell>
        <mxCell id="hvLHzrmta7wuHLuf9szE-54" value="Usuário / Cliente&lt;div&gt;Consumo, input de dados&lt;/div&gt;" style="text;html=1;strokeColor=none;fillColor=none;align=center;verticalAlign=top;" parent="1" vertex="1">
          <mxGeometry x="40" y="124" width="60" height="30" as="geometry" />
        </mxCell>
        <mxCell id="hvLHzrmta7wuHLuf9szE-56" value="Autenticação Token" style="text;html=1;strokeColor=none;fillColor=none;align=center;verticalAlign=top;" parent="1" vertex="1">
          <mxGeometry x="155" y="122" width="90" height="30" as="geometry" />
        </mxCell>
        <mxCell id="hvLHzrmta7wuHLuf9szE-58" value="FastAPI" style="text;html=1;strokeColor=none;fillColor=none;align=center;verticalAlign=top;" parent="1" vertex="1">
          <mxGeometry x="289" y="114" width="120" height="30" as="geometry" />
        </mxCell>
        <mxCell id="hvLHzrmta7wuHLuf9szE-60" value="Rotas / Endpoints" style="text;html=1;strokeColor=none;fillColor=none;align=center;verticalAlign=top;" parent="1" vertex="1">
          <mxGeometry x="460.95000000000005" y="219" width="100" height="30" as="geometry" />
        </mxCell>
        <mxCell id="hvLHzrmta7wuHLuf9szE-62" value="Serviços / CRUD" style="text;html=1;strokeColor=none;fillColor=none;align=center;verticalAlign=top;" parent="1" vertex="1">
          <mxGeometry x="613" y="389.2" width="90" height="30" as="geometry" />
        </mxCell>
        <mxCell id="hvLHzrmta7wuHLuf9szE-64" value="&lt;div&gt;&lt;span style=&quot;background-color: transparent; color: light-dark(rgb(0, 0, 0), rgb(255, 255, 255));&quot;&gt;SQLAlchemy&lt;/span&gt;&lt;/div&gt;" style="text;html=1;strokeColor=none;fillColor=none;align=center;verticalAlign=top;" parent="1" vertex="1">
          <mxGeometry x="860" y="220" width="90" height="30" as="geometry" />
        </mxCell>
        <mxCell id="hvLHzrmta7wuHLuf9szE-66" value="Banco de Dados (SQLite)" style="text;html=1;strokeColor=none;fillColor=none;align=center;verticalAlign=top;" parent="1" vertex="1">
          <mxGeometry x="1040" y="213.5" width="90" height="30" as="geometry" />
        </mxCell>
        <mxCell id="hvLHzrmta7wuHLuf9szE-68" value="Logs" style="text;html=1;strokeColor=none;fillColor=none;align=center;verticalAlign=top;" parent="1" vertex="1">
          <mxGeometry x="232" y="350.25" width="50" height="30" as="geometry" />
        </mxCell>
        <mxCell id="hvLHzrmta7wuHLuf9szE-70" value="Observabilidade / Métricas" style="text;html=1;strokeColor=none;fillColor=none;align=center;verticalAlign=top;" parent="1" vertex="1">
          <mxGeometry x="312" y="383.5" width="202" height="35.7" as="geometry" />
        </mxCell>
        <mxCell id="hvLHzrmta7wuHLuf9szE-77" style="endArrow=block;endFill=1;dashed=1;exitX=0.02;exitY=0.9;exitDx=0;exitDy=0;exitPerimeter=0;entryX=1;entryY=0.5;entryDx=0;entryDy=0;entryPerimeter=0;" parent="1" source="hvLHzrmta7wuHLuf9szE-86" target="hvLHzrmta7wuHLuf9szE-104" edge="1">
          <mxGeometry relative="1" as="geometry">
            <mxPoint x="700.1500000000001" y="39.99999999999996" as="sourcePoint" />
            <mxPoint x="220" y="398.97200416294976" as="targetPoint" />
          </mxGeometry>
        </mxCell>
        <mxCell id="hvLHzrmta7wuHLuf9szE-78" style="endArrow=block;endFill=1;dashed=1;exitX=0.02;exitY=0.9;exitDx=0;exitDy=0;exitPerimeter=0;" parent="1" source="hvLHzrmta7wuHLuf9szE-86" target="hvLHzrmta7wuHLuf9szE-108" edge="1">
          <mxGeometry relative="1" as="geometry">
            <mxPoint x="670.79" y="70.6000000000001" as="sourcePoint" />
            <mxPoint x="411.9502556950256" y="300.7" as="targetPoint" />
          </mxGeometry>
        </mxCell>
        <mxCell id="hvLHzrmta7wuHLuf9szE-80" style="edgeStyle=orthogonalEdgeStyle;rounded=0;orthogonalLoop=1;jettySize=auto;html=1;entryX=0;entryY=0.59;entryDx=0;entryDy=0;entryPerimeter=0;" parent="1" source="hvLHzrmta7wuHLuf9szE-79" target="hvLHzrmta7wuHLuf9szE-81" edge="1">
          <mxGeometry relative="1" as="geometry">
            <mxPoint x="175" y="110" as="targetPoint" />
          </mxGeometry>
        </mxCell>
        <mxCell id="hvLHzrmta7wuHLuf9szE-79" value="" style="aspect=fixed;sketch=0;html=1;dashed=0;whitespace=wrap;verticalLabelPosition=bottom;verticalAlign=top;fillColor=#2875E2;strokeColor=#ffffff;points=[[0.005,0.63,0],[0.1,0.2,0],[0.9,0.2,0],[0.5,0,0],[0.995,0.63,0],[0.72,0.99,0],[0.5,1,0],[0.28,0.99,0]];shape=mxgraph.kubernetes.icon2;prIcon=user" parent="1" vertex="1">
          <mxGeometry x="45" y="75" width="50" height="48" as="geometry" />
        </mxCell>
        <mxCell id="hvLHzrmta7wuHLuf9szE-81" value="" style="verticalLabelPosition=bottom;html=1;verticalAlign=top;align=center;strokeColor=none;fillColor=#00BEF2;shape=mxgraph.azure.access_control;" parent="1" vertex="1">
          <mxGeometry x="173" y="70" width="50" height="50" as="geometry" />
        </mxCell>
        <mxCell id="hvLHzrmta7wuHLuf9szE-83" value="" style="aspect=fixed;sketch=0;html=1;dashed=0;whitespace=wrap;verticalLabelPosition=bottom;verticalAlign=top;fillColor=#2875E2;strokeColor=#ffffff;points=[[0.005,0.63,0],[0.1,0.2,0],[0.9,0.2,0],[0.5,0,0],[0.995,0.63,0],[0.72,0.99,0],[0.5,1,0],[0.28,0.99,0]];shape=mxgraph.kubernetes.icon2;prIcon=api" parent="1" vertex="1">
          <mxGeometry x="324" y="70" width="50" height="48" as="geometry" />
        </mxCell>
        <mxCell id="hvLHzrmta7wuHLuf9szE-85" style="edgeStyle=orthogonalEdgeStyle;rounded=0;orthogonalLoop=1;jettySize=auto;html=1;entryX=0.005;entryY=0.63;entryDx=0;entryDy=0;entryPerimeter=0;" parent="1" source="hvLHzrmta7wuHLuf9szE-81" target="hvLHzrmta7wuHLuf9szE-83" edge="1">
          <mxGeometry relative="1" as="geometry">
            <Array as="points">
              <mxPoint x="251" y="100" />
              <mxPoint x="251" y="100" />
            </Array>
          </mxGeometry>
        </mxCell>
        <mxCell id="hvLHzrmta7wuHLuf9szE-161" style="edgeStyle=orthogonalEdgeStyle;rounded=0;orthogonalLoop=1;jettySize=auto;html=1;exitX=0.5;exitY=0.01;exitDx=0;exitDy=0;exitPerimeter=0;" parent="1" source="hvLHzrmta7wuHLuf9szE-86" target="hvLHzrmta7wuHLuf9szE-158" edge="1">
          <mxGeometry relative="1" as="geometry">
            <Array as="points">
              <mxPoint x="600" y="161" />
              <mxPoint x="600" y="35" />
            </Array>
          </mxGeometry>
        </mxCell>
        <mxCell id="hvLHzrmta7wuHLuf9szE-168" style="edgeStyle=orthogonalEdgeStyle;rounded=0;orthogonalLoop=1;jettySize=auto;html=1;entryX=0;entryY=0.5;entryDx=0;entryDy=0;exitX=0.818;exitY=0.86;exitDx=0;exitDy=0;exitPerimeter=0;" parent="1" source="hvLHzrmta7wuHLuf9szE-86" target="hvLHzrmta7wuHLuf9szE-162" edge="1">
          <mxGeometry relative="1" as="geometry">
            <Array as="points">
              <mxPoint x="770" y="212" />
              <mxPoint x="770" y="35" />
            </Array>
          </mxGeometry>
        </mxCell>
        <mxCell id="hvLHzrmta7wuHLuf9szE-86" value="" style="verticalLabelPosition=bottom;html=1;verticalAlign=top;align=center;strokeColor=none;fillColor=#00BEF2;shape=mxgraph.azure.express_route;pointerEvents=1;" parent="1" vertex="1">
          <mxGeometry x="460.95000000000005" y="160" width="80" height="60" as="geometry" />
        </mxCell>
        <mxCell id="hvLHzrmta7wuHLuf9szE-87" style="edgeStyle=orthogonalEdgeStyle;rounded=0;orthogonalLoop=1;jettySize=auto;html=1;entryX=0.5;entryY=0.01;entryDx=0;entryDy=0;entryPerimeter=0;" parent="1" source="hvLHzrmta7wuHLuf9szE-83" target="hvLHzrmta7wuHLuf9szE-86" edge="1">
          <mxGeometry relative="1" as="geometry">
            <Array as="points">
              <mxPoint x="501" y="100" />
            </Array>
          </mxGeometry>
        </mxCell>
        <mxCell id="hvLHzrmta7wuHLuf9szE-92" value="" style="sketch=0;html=1;aspect=fixed;strokeColor=none;shadow=0;fillColor=#3B8DF1;verticalAlign=top;labelPosition=center;verticalLabelPosition=bottom;shape=mxgraph.gcp2.gear" parent="1" vertex="1">
          <mxGeometry x="633.5" y="295.25" width="60" height="60" as="geometry" />
        </mxCell>
        <mxCell id="hvLHzrmta7wuHLuf9szE-96" value="" style="image;aspect=fixed;perimeter=ellipsePerimeter;html=1;align=center;shadow=0;dashed=0;spacingTop=3;image=img/lib/active_directory/database.svg;" parent="1" vertex="1">
          <mxGeometry x="1045.47" y="155" width="79.05" height="58.5" as="geometry" />
        </mxCell>
        <mxCell id="hvLHzrmta7wuHLuf9szE-103" style="edgeStyle=orthogonalEdgeStyle;rounded=0;orthogonalLoop=1;jettySize=auto;html=1;" parent="1" source="hvLHzrmta7wuHLuf9szE-100" target="hvLHzrmta7wuHLuf9szE-96" edge="1">
          <mxGeometry relative="1" as="geometry" />
        </mxCell>
        <mxCell id="hvLHzrmta7wuHLuf9szE-100" value="" style="sketch=0;html=1;aspect=fixed;strokeColor=none;shadow=0;fillColor=#3B8DF1;verticalAlign=top;labelPosition=center;verticalLabelPosition=bottom;shape=mxgraph.gcp2.gear" parent="1" vertex="1">
          <mxGeometry x="870" y="150" width="70" height="70" as="geometry" />
        </mxCell>
        <mxCell id="hvLHzrmta7wuHLuf9szE-104" value="Log" style="html=1;whiteSpace=wrap;strokeColor=none;fillColor=#0079D6;labelPosition=center;verticalLabelPosition=middle;verticalAlign=top;align=center;fontSize=12;outlineConnect=0;spacingTop=-6;fontColor=#FFFFFF;sketch=0;shape=mxgraph.sitemap.log;" parent="1" vertex="1">
          <mxGeometry x="223" y="300.25" width="80" height="50" as="geometry" />
        </mxCell>
        <mxCell id="hvLHzrmta7wuHLuf9szE-108" value="" style="image;aspect=fixed;html=1;points=[];align=center;fontSize=12;image=img/lib/azure2/management_governance/Metrics.svg;" parent="1" vertex="1">
          <mxGeometry x="383" y="318.5" width="60" height="65" as="geometry" />
        </mxCell>
        <mxCell id="hvLHzrmta7wuHLuf9szE-117" value="&lt;h1 style=&quot;margin-top: 0px;&quot;&gt;&lt;font style=&quot;font-size: 18px;&quot;&gt;PRINCIPAIS FERRAMENTAS UTILIZADAS NO PROJETO&lt;/font&gt;&lt;/h1&gt;&lt;p&gt;Python&lt;/p&gt;&lt;p&gt;BeautifullSoup&lt;/p&gt;&lt;p&gt;Fast API&lt;/p&gt;&lt;p&gt;JWT&lt;/p&gt;&lt;p&gt;SQL Lite&lt;/p&gt;&lt;p&gt;SQL Alchemy&lt;/p&gt;&lt;p&gt;GitHub&lt;/p&gt;&lt;p&gt;Visual Studio&lt;/p&gt;" style="text;html=1;whiteSpace=wrap;overflow=hidden;rounded=0;" parent="1" vertex="1">
          <mxGeometry x="19" y="785" width="310" height="360" as="geometry" />
        </mxCell>
        <mxCell id="hvLHzrmta7wuHLuf9szE-118" value="&lt;font style=&quot;font-size: 18px;&quot;&gt;&lt;b style=&quot;&quot;&gt;Representação Resumida&lt;/b&gt;&lt;/font&gt;" style="text;html=1;align=center;verticalAlign=middle;resizable=0;points=[];autosize=1;strokeColor=none;fillColor=none;" parent="1" vertex="1">
          <mxGeometry x="15" y="530" width="240" height="40" as="geometry" />
        </mxCell>
        <mxCell id="hvLHzrmta7wuHLuf9szE-119" value="&lt;font style=&quot;font-size: 18px;&quot;&gt;&lt;b style=&quot;&quot;&gt;Arquitetura&lt;/b&gt;&lt;/font&gt;" style="text;html=1;align=center;verticalAlign=middle;resizable=0;points=[];autosize=1;strokeColor=none;fillColor=none;" parent="1" vertex="1">
          <mxGeometry x="770" y="-250" width="120" height="40" as="geometry" />
        </mxCell>
        <mxCell id="hvLHzrmta7wuHLuf9szE-120" style="edgeStyle=orthogonalEdgeStyle;rounded=0;orthogonalLoop=1;jettySize=auto;html=1;entryX=-0.004;entryY=0.512;entryDx=0;entryDy=0;entryPerimeter=0;" parent="1" source="hvLHzrmta7wuHLuf9szE-92" target="hvLHzrmta7wuHLuf9szE-100" edge="1">
          <mxGeometry relative="1" as="geometry" />
        </mxCell>
        <mxCell id="hvLHzrmta7wuHLuf9szE-121" value="" style="outlineConnect=0;dashed=0;verticalLabelPosition=bottom;verticalAlign=top;align=center;html=1;shape=mxgraph.aws3.android;fillColor=#FFD44F;gradientColor=none;" parent="1" vertex="1">
          <mxGeometry x="383" y="-132" width="73.5" height="84" as="geometry" />
        </mxCell>
        <mxCell id="hvLHzrmta7wuHLuf9szE-122" style="edgeStyle=orthogonalEdgeStyle;rounded=0;orthogonalLoop=1;jettySize=auto;html=1;" parent="1" source="hvLHzrmta7wuHLuf9szE-121" edge="1">
          <mxGeometry relative="1" as="geometry">
            <mxPoint x="348" y="70" as="targetPoint" />
          </mxGeometry>
        </mxCell>
        <mxCell id="hvLHzrmta7wuHLuf9szE-123" value="Web Scrapping" style="text;html=1;align=center;verticalAlign=middle;resizable=0;points=[];autosize=1;strokeColor=none;fillColor=none;" parent="1" vertex="1">
          <mxGeometry x="364.75" y="-48" width="110" height="30" as="geometry" />
        </mxCell>
        <mxCell id="hvLHzrmta7wuHLuf9szE-135" value="Site de Livros" style="text;html=1;align=center;verticalAlign=middle;resizable=0;points=[];autosize=1;strokeColor=none;fillColor=none;" parent="1" vertex="1">
          <mxGeometry x="533.5" y="-130" width="100" height="30" as="geometry" />
        </mxCell>
        <mxCell id="hvLHzrmta7wuHLuf9szE-136" value="" style="shape=mxgraph.cisco.servers.www_server;html=1;pointerEvents=1;dashed=0;fillColor=#036897;strokeColor=#ffffff;strokeWidth=2;verticalLabelPosition=bottom;verticalAlign=top;align=center;outlineConnect=0;" parent="1" vertex="1">
          <mxGeometry x="551.95" y="-197" width="66" height="67" as="geometry" />
        </mxCell>
        <mxCell id="hvLHzrmta7wuHLuf9szE-137" style="edgeStyle=orthogonalEdgeStyle;rounded=0;orthogonalLoop=1;jettySize=auto;html=1;entryX=0.5;entryY=0;entryDx=0;entryDy=0;entryPerimeter=0;" parent="1" source="hvLHzrmta7wuHLuf9szE-136" target="hvLHzrmta7wuHLuf9szE-121" edge="1">
          <mxGeometry relative="1" as="geometry" />
        </mxCell>
        <mxCell id="hvLHzrmta7wuHLuf9szE-138" value="FastAPI" style="text;html=1;strokeColor=none;fillColor=none;align=center;verticalAlign=top;" parent="1" vertex="1">
          <mxGeometry x="1140" y="94" width="120" height="30" as="geometry" />
        </mxCell>
        <mxCell id="hvLHzrmta7wuHLuf9szE-139" value="" style="aspect=fixed;sketch=0;html=1;dashed=0;whitespace=wrap;verticalLabelPosition=bottom;verticalAlign=top;fillColor=#2875E2;strokeColor=#ffffff;points=[[0.005,0.63,0],[0.1,0.2,0],[0.9,0.2,0],[0.5,0,0],[0.995,0.63,0],[0.72,0.99,0],[0.5,1,0],[0.28,0.99,0]];shape=mxgraph.kubernetes.icon2;prIcon=api" parent="1" vertex="1">
          <mxGeometry x="1175" y="50" width="50" height="48" as="geometry" />
        </mxCell>
        <mxCell id="hvLHzrmta7wuHLuf9szE-140" style="edgeStyle=orthogonalEdgeStyle;rounded=0;orthogonalLoop=1;jettySize=auto;html=1;entryX=0.005;entryY=0.63;entryDx=0;entryDy=0;entryPerimeter=0;" parent="1" source="hvLHzrmta7wuHLuf9szE-96" target="hvLHzrmta7wuHLuf9szE-139" edge="1">
          <mxGeometry relative="1" as="geometry" />
        </mxCell>
        <mxCell id="hvLHzrmta7wuHLuf9szE-141" value="Usuário / Cliente&lt;div&gt;Consumo, input de dados&lt;/div&gt;" style="text;html=1;strokeColor=none;fillColor=none;align=center;verticalAlign=top;" parent="1" vertex="1">
          <mxGeometry x="1320" y="64" width="60" height="30" as="geometry" />
        </mxCell>
        <mxCell id="hvLHzrmta7wuHLuf9szE-142" value="" style="aspect=fixed;sketch=0;html=1;dashed=0;whitespace=wrap;verticalLabelPosition=bottom;verticalAlign=top;fillColor=#2875E2;strokeColor=#ffffff;points=[[0.005,0.63,0],[0.1,0.2,0],[0.9,0.2,0],[0.5,0,0],[0.995,0.63,0],[0.72,0.99,0],[0.5,1,0],[0.28,0.99,0]];shape=mxgraph.kubernetes.icon2;prIcon=user" parent="1" vertex="1">
          <mxGeometry x="1325" y="15" width="50" height="48" as="geometry" />
        </mxCell>
        <mxCell id="hvLHzrmta7wuHLuf9szE-143" style="edgeStyle=orthogonalEdgeStyle;rounded=0;orthogonalLoop=1;jettySize=auto;html=1;entryX=0.368;entryY=0.735;entryDx=0;entryDy=0;entryPerimeter=0;" parent="1" source="hvLHzrmta7wuHLuf9szE-139" target="hvLHzrmta7wuHLuf9szE-142" edge="1">
          <mxGeometry relative="1" as="geometry" />
        </mxCell>
        <mxCell id="hvLHzrmta7wuHLuf9szE-150" value="books / books id" style="rounded=1;whiteSpace=wrap;html=1;fillColor=#fff2cc;strokeColor=#d6b656;" parent="1" vertex="1">
          <mxGeometry x="658.5" y="-48" width="75" height="37" as="geometry" />
        </mxCell>
        <mxCell id="hvLHzrmta7wuHLuf9szE-154" value="tilte or categories" style="rounded=1;whiteSpace=wrap;html=1;fillColor=#fff2cc;strokeColor=#d6b656;" parent="1" vertex="1">
          <mxGeometry x="658.5" y="-1" width="75" height="35" as="geometry" />
        </mxCell>
        <mxCell id="hvLHzrmta7wuHLuf9szE-156" value="categories" style="rounded=1;whiteSpace=wrap;html=1;fillColor=#fff2cc;strokeColor=#d6b656;" parent="1" vertex="1">
          <mxGeometry x="658.5" y="43" width="75" height="35" as="geometry" />
        </mxCell>
        <mxCell id="hvLHzrmta7wuHLuf9szE-159" value="&lt;font style=&quot;font-size: 14px;&quot;&gt;Core Routes&lt;/font&gt;" style="text;html=1;align=center;verticalAlign=middle;whiteSpace=wrap;rounded=0;" parent="1" vertex="1">
          <mxGeometry x="663.5" y="-100" width="70" height="30" as="geometry" />
        </mxCell>
        <mxCell id="hvLHzrmta7wuHLuf9szE-160" value="health" style="rounded=1;whiteSpace=wrap;html=1;fillColor=#fff2cc;strokeColor=#d6b656;" parent="1" vertex="1">
          <mxGeometry x="658.5" y="85" width="75" height="35" as="geometry" />
        </mxCell>
        <mxCell id="hvLHzrmta7wuHLuf9szE-162" value="" style="rounded=1;whiteSpace=wrap;html=1;" parent="1" vertex="1">
          <mxGeometry x="790" y="-60" width="120" height="190" as="geometry" />
        </mxCell>
        <mxCell id="hvLHzrmta7wuHLuf9szE-163" value="overview" style="rounded=1;whiteSpace=wrap;html=1;fillColor=#fff2cc;strokeColor=#d6b656;" parent="1" vertex="1">
          <mxGeometry x="815" y="-48" width="75" height="37" as="geometry" />
        </mxCell>
        <mxCell id="hvLHzrmta7wuHLuf9szE-164" value="categories" style="rounded=1;whiteSpace=wrap;html=1;fillColor=#fff2cc;strokeColor=#d6b656;" parent="1" vertex="1">
          <mxGeometry x="815" y="-1" width="75" height="35" as="geometry" />
        </mxCell>
        <mxCell id="hvLHzrmta7wuHLuf9szE-165" value="top-rated" style="rounded=1;whiteSpace=wrap;html=1;fillColor=#fff2cc;strokeColor=#d6b656;" parent="1" vertex="1">
          <mxGeometry x="815" y="43" width="75" height="35" as="geometry" />
        </mxCell>
        <mxCell id="hvLHzrmta7wuHLuf9szE-167" value="price-range" style="rounded=1;whiteSpace=wrap;html=1;fillColor=#fff2cc;strokeColor=#d6b656;" parent="1" vertex="1">
          <mxGeometry x="815" y="85" width="75" height="35" as="geometry" />
        </mxCell>
        <mxCell id="hvLHzrmta7wuHLuf9szE-170" value="&lt;font style=&quot;font-size: 14px;&quot;&gt;Insights Routes&lt;/font&gt;" style="text;html=1;align=center;verticalAlign=middle;whiteSpace=wrap;rounded=0;" parent="1" vertex="1">
          <mxGeometry x="820" y="-100" width="70" height="30" as="geometry" />
        </mxCell>
        <mxCell id="hvLHzrmta7wuHLuf9szE-171" style="edgeStyle=orthogonalEdgeStyle;rounded=0;orthogonalLoop=1;jettySize=auto;html=1;entryX=0.017;entryY=0.699;entryDx=0;entryDy=0;entryPerimeter=0;exitX=0.5;exitY=0.88;exitDx=0;exitDy=0;exitPerimeter=0;" parent="1" source="hvLHzrmta7wuHLuf9szE-86" target="hvLHzrmta7wuHLuf9szE-92" edge="1">
          <mxGeometry relative="1" as="geometry">
            <Array as="points">
              <mxPoint x="501" y="337" />
            </Array>
          </mxGeometry>
        </mxCell>
      </root>
    </mxGraphModel>
  </diagram>
</mxfile>
